<?xml version="1.0" encoding="utf-8"?>
<!-- Generator: Adobe Illustrator 26.0.2, SVG Export Plug-In . SVG Version: 6.00 Build 0)  -->
<svg version="1.1" id="camion" xmlns="http://www.w3.org/2000/svg" xmlns:xlink="http://www.w3.org/1999/xlink" x="0px" y="0px"
	 viewBox="0 0 80 80" style="enable-background:new 0 0 80 80;" xml:space="preserve">
<style type="text/css">
	.st0{fill:#FFFFFF;}
</style>
<path class="st0" d="M56,63.41H44.62c-0.51-0.05-0.88-0.51-0.83-1.02c0.05-0.44,0.39-0.78,0.83-0.83H56c1,0,1.81-0.81,1.82-1.81
	V13.67c-0.01-1-0.82-1.81-1.82-1.81H24.06c-1,0-1.81,0.81-1.82,1.81v46.08c0.01,1,0.82,1.81,1.82,1.81h11.32
	c0.51,0.05,0.88,0.51,0.83,1.02c-0.05,0.44-0.39,0.78-0.83,0.83H24.06c-2.02,0.01-3.66-1.63-3.67-3.65c0,0,0-0.01,0-0.01V13.67
	c0-2.03,1.64-3.67,3.67-3.67H56c2.03,0,3.67,1.64,3.67,3.67v46.08c0,2.02-1.64,3.66-3.66,3.66C56.01,63.41,56,63.41,56,63.41z"/>
<path class="st0" d="M16.75,39.57H15c-1.2,0-2.17-0.97-2.17-2.17V29c0-1.2,0.97-2.17,2.17-2.17h1.75c1.2,0,2.17,0.97,2.17,2.17v8.4
	C18.91,38.6,17.95,39.56,16.75,39.57z M15,28.68c-0.17,0-0.31,0.14-0.31,0.31c0,0,0,0.01,0,0.01v8.4c0,0.17,0.14,0.31,0.31,0.31
	c0,0,0,0,0,0h1.75c0.17,0,0.31-0.14,0.31-0.31l0,0V29c0.01-0.17-0.13-0.31-0.3-0.32c0,0-0.01,0-0.01,0H15z"/>
<path class="st0" d="M20.89,28.68h-5c-0.51-0.05-0.88-0.51-0.83-1.02c0.05-0.44,0.39-0.78,0.83-0.83h5
	c0.51-0.05,0.97,0.32,1.02,0.83s-0.32,0.97-0.83,1.02C21.02,28.69,20.95,28.69,20.89,28.68z"/>
<path class="st0" d="M65,39.57h-1.75c-1.2-0.01-2.16-0.97-2.17-2.17V29c0-1.2,0.97-2.17,2.17-2.17H65c1.2,0,2.17,0.97,2.17,2.17v8.4
	C67.17,38.6,66.2,39.57,65,39.57z M63.25,28.68c-0.17,0-0.31,0.14-0.31,0.31c0,0,0,0.01,0,0.01v8.4c0,0.17,0.14,0.31,0.31,0.31
	c0,0,0,0,0,0H65c0.17,0,0.31-0.14,0.31-0.31V29c0.01-0.17-0.13-0.31-0.3-0.32c0,0-0.01,0-0.01,0H63.25z"/>
<path class="st0" d="M64.13,28.68h-5c-0.51,0.05-0.97-0.32-1.02-0.83s0.32-0.97,0.83-1.02c0.06-0.01,0.13-0.01,0.19,0h5
	c0.51,0.05,0.88,0.51,0.83,1.02C64.91,28.29,64.57,28.63,64.13,28.68z"/>
<path class="st0" d="M58.73,42.92H21.32c-0.51,0-0.93-0.42-0.93-0.93l0,0v-12.8c0-1.89,0.77-3.69,2.13-5
	c1.24-1.19,2.93-1.82,4.65-1.73h25.71c1.72-0.09,3.41,0.54,4.65,1.73c1.36,1.31,2.13,3.11,2.13,5V42
	C59.65,42.51,59.24,42.92,58.73,42.92z M22.24,41.06h35.57V29.18c0.01-1.39-0.55-2.72-1.56-3.67c-0.87-0.84-2.04-1.28-3.25-1.23
	H27.09c-1.22-0.06-2.41,0.38-3.29,1.23c-1,0.96-1.57,2.29-1.56,3.68V41.06z"/>
<path class="st0" d="M27.1,51.29h-1.84c-0.13,0-0.26-0.03-0.38-0.08l-4-1.79c-0.45-0.25-0.61-0.82-0.36-1.27
	c0.22-0.39,0.69-0.57,1.12-0.42l3.79,1.71h1.67c0.07,0,0.14-0.08,0.14-0.2c0.01-1.13-0.6-2.18-1.58-2.73L20.86,44
	c-0.46-0.24-0.63-0.8-0.4-1.26s0.8-0.63,1.26-0.4l4.8,2.54c1.61,0.86,2.6,2.55,2.58,4.37c0.02,1.1-0.87,2.01-1.97,2.03
	C27.12,51.29,27.11,51.29,27.1,51.29z"/>
<path class="st0" d="M54.74,51.29H52.9c-1.1,0-2-0.9-2-2c-0.02-1.82,0.97-3.51,2.58-4.37l4.8-2.54c0.49-0.16,1.01,0.1,1.18,0.59
	c0.12,0.38,0,0.79-0.32,1.03l-4.79,2.53c-0.99,0.55-1.6,1.6-1.59,2.73c0,0.12,0.07,0.2,0.14,0.2h1.64l3.79-1.71
	c0.48-0.17,1.02,0.09,1.18,0.57c0.15,0.43-0.03,0.9-0.42,1.12l-4,1.79C54.98,51.27,54.86,51.29,54.74,51.29z"/>
<path class="st0" d="M48.65,56.34H31.4c-0.63,0-1.22-0.34-1.52-0.89c-0.33-0.58-0.33-1.28,0-1.86l0.21-0.34
	c0.78-1.31,2.19-2.12,3.72-2.13h12.4c1.53,0.01,2.94,0.82,3.72,2.13l0.21,0.34l0,0c0.33,0.58,0.33,1.28,0,1.86
	C49.84,55.99,49.27,56.33,48.65,56.34z M48.55,54.56L48.55,54.56l0.79-0.48L48.55,54.56z M31.55,54.49h17l-0.17-0.27
	c-0.45-0.77-1.28-1.23-2.17-1.22H33.84c-0.88,0.01-1.69,0.48-2.14,1.24L31.55,54.49z"/>
<path class="st0" d="M35.25,60.46H25.18c-0.51-0.05-0.88-0.51-0.83-1.02c0.05-0.44,0.39-0.78,0.83-0.83h10.07
	c0.51-0.05,0.97,0.32,1.02,0.83s-0.32,0.97-0.83,1.02C35.38,60.47,35.31,60.47,35.25,60.46z"/>
<path class="st0" d="M54.82,60.46H44.75c-0.51,0.05-0.97-0.32-1.02-0.83s0.32-0.97,0.83-1.02c0.06-0.01,0.13-0.01,0.19,0h10.07
	c0.51,0.05,0.88,0.51,0.83,1.02C55.6,60.07,55.26,60.41,54.82,60.46z"/>
<path class="st0" d="M28.17,17.47h-3.44c-0.51,0-0.93-0.42-0.93-0.93s0.42-0.93,0.93-0.93c0,0,0,0,0,0h3.44
	c0.51,0,0.93,0.42,0.93,0.93C29.1,17.05,28.68,17.47,28.17,17.47z"/>
<path class="st0" d="M55.37,17.47h-3.44c-0.51,0-0.93-0.42-0.93-0.93c0-0.51,0.42-0.93,0.93-0.93h3.44c0.51,0,0.93,0.42,0.93,0.93
	C56.3,17.05,55.88,17.47,55.37,17.47z"/>
<path class="st0" d="M53.5,42.92c-0.51,0-0.93-0.42-0.93-0.93l0,0c0.15-2.05-1.39-3.84-3.45-3.99c-2.05-0.15-3.84,1.39-3.99,3.45
	c-0.01,0.18-0.01,0.36,0,0.55c0,0.51-0.42,0.93-0.93,0.93s-0.93-0.42-0.93-0.93c-0.13-3.08,2.26-5.68,5.34-5.81
	c3.08-0.13,5.68,2.26,5.81,5.34c0.01,0.16,0.01,0.31,0,0.47C54.42,42.5,54.01,42.91,53.5,42.92z"/>
<path class="st0" d="M24.73,42.92h-0.09c-0.51-0.05-0.88-0.49-0.83-1l0.73-7.19c0.28-1.83,1.9-3.15,3.75-3.06h5.86
	c1.85-0.09,3.47,1.24,3.75,3.07l0.72,7.18c0.05,0.51-0.32,0.95-0.83,1c-0.5,0.04-0.95-0.33-1-0.83l-0.72-7.18
	c-0.2-0.87-1.01-1.47-1.9-1.39h-5.88c-0.89-0.07-1.7,0.52-1.9,1.39l-0.73,7.18C25.61,42.56,25.21,42.92,24.73,42.92z"/>
<path class="st0" d="M33.49,37.64h-4.55c-0.51,0-0.93-0.42-0.93-0.93s0.42-0.93,0.93-0.93h4.55c0.51,0,0.93,0.42,0.93,0.93
	S34,37.64,33.49,37.64z"/>
<path class="st0" d="M42.41,42.92h-0.1c-0.51-0.05-0.88-0.49-0.83-1l0.74-7.19c0.28-1.85,1.91-3.18,3.78-3.08h5.85
	c1.85-0.1,3.48,1.23,3.75,3.07l0.72,7.18c0.05,0.51-0.32,0.96-0.83,1.01c-0.51,0.05-0.96-0.32-1.01-0.83l0,0l-0.72-7.18
	c-0.2-0.87-1.02-1.47-1.91-1.39H46c-0.89-0.08-1.71,0.52-1.91,1.39l-0.73,7.18C43.31,42.57,42.9,42.93,42.41,42.92z"/>
<path class="st0" d="M30.92,70h-4.59c-1.42-0.02-2.55-1.19-2.53-2.61c0,0,0,0,0,0v-4.9c0-0.51,0.42-0.93,0.93-0.93
	s0.93,0.42,0.93,0.93v4.9c-0.02,0.39,0.28,0.72,0.67,0.75h4.59c0.39-0.03,0.69-0.36,0.67-0.75v-4.9c0-0.51,0.42-0.93,0.93-0.93
	s0.93,0.42,0.93,0.93v4.9C33.47,68.81,32.34,69.97,30.92,70z"/>
<path class="st0" d="M54.13,70h-4.59c-1.42-0.02-2.56-1.18-2.54-2.6c0,0,0-0.01,0-0.01v-4.9c0-0.51,0.42-0.93,0.93-0.93
	s0.93,0.42,0.93,0.93v4.9c-0.02,0.39,0.28,0.72,0.67,0.75h4.59c0.39-0.03,0.69-0.36,0.67-0.75v-4.9c0-0.51,0.42-0.93,0.93-0.93
	s0.93,0.42,0.93,0.93v4.9C56.67,68.8,55.54,69.97,54.13,70z"/>
<path class="st0" d="M44.62,64.32h-9.24c-0.51,0.01-0.92-0.4-0.93-0.91c0-0.01,0-0.01,0-0.02v-5.17c0-0.51,0.42-0.93,0.93-0.93l0,0
	h9.24c0.51,0,0.93,0.42,0.93,0.93l0,0v5.17c0.01,0.51-0.4,0.92-0.91,0.93C44.63,64.32,44.63,64.32,44.62,64.32z M36.3,62.47h7.4
	v-3.32h-7.4V62.47z"/>
</svg>
