<?xml version="1.0" encoding="utf-8"?>
<!-- Generator: Adobe Illustrator 26.0.2, SVG Export Plug-In . SVG Version: 6.00 Build 0)  -->
<svg version="1.1" id="Capa_5" xmlns="http://www.w3.org/2000/svg" xmlns:xlink="http://www.w3.org/1999/xlink" x="0px" y="0px"
	 viewBox="0 0 80 80" style="enable-background:new 0 0 80 80;" xml:space="preserve">
<style type="text/css">
	.st0{fill:#FFFFFF;}
</style>
<path class="st0" d="M34.37,41.13c-0.49,0-0.88-0.39-0.88-0.88c0,0,0,0,0,0v-7.34c0.01-0.48,0.4-0.87,0.88-0.88H53
	c0.48,0.01,0.87,0.4,0.87,0.88v6.81c-0.05,0.48-0.49,0.83-0.97,0.78c-0.41-0.04-0.74-0.37-0.78-0.78v-5.93H35.25v6.46
	c0.01,0.48-0.38,0.87-0.86,0.88C34.38,41.13,34.38,41.13,34.37,41.13z"/>
<path class="st0" d="M48.29,47H37.82c-0.48,0.05-0.92-0.3-0.97-0.78s0.3-0.92,0.78-0.97c0.06-0.01,0.13-0.01,0.19,0h10.47
	c0.48-0.05,0.92,0.3,0.97,0.78s-0.3,0.92-0.78,0.97C48.42,47.01,48.35,47.01,48.29,47z"/>
<path class="st0" d="M46.36,45.35c-2.98,0-5.39-2.41-5.39-5.39c0-2.98,2.41-5.39,5.39-5.39c2.98,0,5.39,2.41,5.39,5.39
	c0,0.01,0,0.03,0,0.04C51.72,42.96,49.32,45.34,46.36,45.35z M46.36,36.35c-2,0.01-3.63,1.64-3.62,3.64c0.01,2,1.64,3.63,3.64,3.62
	C48.37,43.6,49.99,41.99,50,40c0.02-2.01-1.6-3.65-3.61-3.67c-0.01,0-0.02,0-0.03,0V36.35z"/>
<path class="st0" d="M61.06,64.38c-0.46,0-0.92-0.06-1.36-0.18c-1.35-0.35-2.5-1.23-3.19-2.44l-8.62-14.93
	c-0.44-0.76-0.68-1.62-0.7-2.5c0-0.49,0.4-0.88,0.88-0.88c0.49,0,0.88,0.39,0.88,0.88c0.01,0.59,0.17,1.16,0.46,1.67L58,60.88
	c0.46,0.8,1.22,1.39,2.11,1.63c1.85,0.5,3.77-0.59,4.27-2.44c0.24-0.9,0.12-1.86-0.35-2.67l-8.58-14.93
	c-0.85-1.48-2.64-2.12-4.23-1.53c-0.46,0.17-0.96-0.06-1.13-0.52c-0.16-0.46,0.07-0.96,0.52-1.13c2.41-0.91,5.12,0.06,6.39,2.3
	l8.62,14.93c1.45,2.51,0.59,5.71-1.92,7.16c0,0,0,0,0,0C62.9,64.15,61.99,64.39,61.06,64.38z"/>
<path class="st0" d="M20.9,68.52c-1.51-0.01-2.98-0.45-4.23-1.29c-3.4-2.31-3.08-5.93-2.42-8.82l0,0l3.62-13.64
	c0.59-2.24,2.11-4.12,4.18-5.16l4.32-2.17c0.45-0.18,0.96,0.03,1.15,0.48c0.16,0.4,0.01,0.85-0.35,1.08l-4.32,2.17
	c-1.61,0.81-2.8,2.26-3.27,4L16,58.82c-0.81,3.57-0.32,5.59,1.71,7c1.69,1.17,4.89,1.7,6.72-0.75l12.18-18.51l0,0
	c1.1-1.58,0.72-3.76-0.86-4.87c-1.58-1.1-3.76-0.72-4.87,0.87l0,0L21,57.46c-0.26,0.4-0.8,0.52-1.2,0.26
	c-0.01,0-0.01-0.01-0.02-0.01c-0.4-0.27-0.51-0.81-0.25-1.22l9.85-14.88l0,0c1.64-2.39,4.9-3,7.29-1.36c2.39,1.64,3,4.9,1.36,7.29
	l0,0L25.84,66l0,0C24.71,67.61,22.86,68.55,20.9,68.52z"/>
<path class="st0" d="M34.31,38.38L34.31,38.38c-1.77-0.04-3.38-1.03-4.22-2.58l0,0c-0.23-0.43-0.07-0.96,0.35-1.19
	c0.43-0.23,0.96-0.07,1.19,0.35l0,0l0,0c0.54,1,1.57,1.63,2.7,1.65c0.49,0,0.88,0.4,0.88,0.88c0,0.49-0.39,0.88-0.88,0.88H34.31z"/>
<path class="st0" d="M46.36,68.52c-0.49,0-0.88-0.39-0.88-0.88V57.35c0-0.49,0.4-0.88,0.89-0.87c0.12,0,0.23,0.03,0.34,0.07
	l11.83,5.07c0.45,0.19,0.65,0.71,0.46,1.16s-0.71,0.65-1.16,0.46l0,0l-10.6-4.55v9C47.22,68.16,46.83,68.53,46.36,68.52z"/>
<path class="st0" d="M63.36,35.46H58.5c-0.48,0.05-0.92-0.3-0.97-0.78s0.3-0.92,0.78-0.97c0.06-0.01,0.13-0.01,0.19,0h4.86
	c0.48-0.05,0.92,0.3,0.97,0.78s-0.3,0.92-0.78,0.97C63.49,35.47,63.42,35.47,63.36,35.46z"/>
<path class="st0" d="M43.4,17c-0.48-0.01-0.87-0.4-0.88-0.88v-3.9c0-0.49,0.4-0.88,0.88-0.88c0.49,0,0.88,0.39,0.88,0.88v3.86
	c0.02,0.49-0.35,0.9-0.84,0.92C43.43,17,43.41,17,43.4,17z"/>
<path class="st0" d="M49,18.5c-0.15,0-0.3-0.04-0.43-0.11c-0.42-0.24-0.57-0.78-0.33-1.2c0,0,0,0,0,0l2.08-3.7
	c0.22-0.42,0.74-0.58,1.16-0.35c0.01,0,0.02,0.01,0.03,0.01c0.42,0.24,0.58,0.77,0.34,1.2c0,0,0,0,0,0l-2.08,3.7
	C49.62,18.33,49.32,18.5,49,18.5z"/>
<path class="st0" d="M57.8,29.92c-0.49,0-0.88-0.4-0.87-0.89c0-0.41,0.29-0.77,0.69-0.85l4.76-1c0.48-0.1,0.95,0.21,1.04,0.68
	c0.1,0.48-0.21,0.95-0.68,1.05l0,0L58,29.9L57.8,29.92z"/>
<path class="st0" d="M56.74,26.23c-0.71,0.01-1.34-0.48-1.51-1.17l-0.57-2.18l-2.18-0.57c-0.83-0.24-1.31-1.1-1.07-1.93
	c0.15-0.52,0.55-0.92,1.07-1.07l2.18-0.57l0.57-2.18c0.26-0.83,1.14-1.29,1.96-1.04c0.5,0.15,0.88,0.54,1.04,1.04l0.56,2.18
	l2.18,0.57c0.83,0.24,1.31,1.1,1.07,1.93c-0.15,0.52-0.55,0.92-1.07,1.07l-2.18,0.57l-0.56,2.18
	C58.06,25.74,57.44,26.22,56.74,26.23z M53.65,20.8l1.56,0.41c0.55,0.14,0.98,0.57,1.12,1.12l0.41,1.57l0.41-1.57
	c0.14-0.55,0.57-0.98,1.12-1.12l1.57-0.41l-1.57-0.41c-0.55-0.14-0.98-0.57-1.12-1.12l-0.41-1.57l-0.41,1.57
	c-0.14,0.55-0.57,0.98-1.12,1.12L53.65,20.8z"/>
<path class="st0" d="M28.71,40.84c-0.28,0-0.54-0.12-0.71-0.34c-1.39-1.75-2.14-3.92-2.13-6.15v-4.7c0-5.49,4.45-9.94,9.94-9.94
	s9.94,4.45,9.94,9.94v3.26c0,0.49-0.4,0.88-0.88,0.88c-0.49,0-0.88-0.39-0.88-0.88v-3.26c-0.16-4.52-3.95-8.06-8.47-7.9
	c-4.3,0.15-7.75,3.6-7.9,7.9v4.7c-0.01,1.84,0.61,3.62,1.76,5.06c0.3,0.38,0.23,0.94-0.15,1.24C29.08,40.77,28.9,40.84,28.71,40.84z
	"/>
</svg>
