<?xml version="1.0" encoding="UTF-8"?>
<svg xmlns="http://www.w3.org/2000/svg" viewBox="0 0 90 90">
  <defs>
    <style>
      .cls-1 {
        fill: #8fcc37;
      }

      .cls-2 {
        fill: #354d15;
      }
    </style>
  </defs>
  <g id="Layer_4" data-name="Layer 4">
    <circle class="cls-1" cx="45" cy="45" r="45"/>
  </g>
  <g id="Layer_2" data-name="Layer 2">
    <g>
      <path class="cls-2" d="M45,33.51c-4.76,0-8.62-3.87-8.62-8.62s3.87-8.62,8.62-8.62,8.62,3.87,8.62,8.62-3.87,8.62-8.62,8.62Zm0-15.31c-3.69,0-6.68,3-6.68,6.68s3,6.68,6.68,6.68,6.68-3,6.68-6.68-3-6.68-6.68-6.68Z"/>
      <path class="cls-2" d="M51.8,53.07c-.54,0-.97-.43-.97-.97v-7.32c0-1.43,.68-2.8,1.83-3.66l9.46-7.69c.89-.67,1.09-1.75,.51-2.53-.58-.77-1.66-.87-2.52-.22l-6.32,4.7c-2.52,1.88-5.64,2.91-8.79,2.91s-6.27-1.03-8.79-2.91l-6.32-4.7c-.43-.32-.92-.47-1.39-.42-.32,.03-.78,.17-1.13,.64-.59,.79-.38,1.87,.48,2.51l9.52,7.74c1.12,.84,1.8,2.21,1.8,3.64v7.32c0,.54-.43,.97-.97,.97s-.97-.43-.97-.97v-7.32c0-.83-.39-1.62-1.06-2.11l-9.52-7.74c-1.69-1.26-2.07-3.56-.83-5.2,.61-.81,1.49-1.31,2.5-1.41,.95-.1,1.93,.19,2.74,.8l6.31,4.7c2.19,1.63,4.9,2.53,7.63,2.53s5.44-.9,7.63-2.53l6.32-4.7c1.71-1.28,4.01-1.01,5.23,.61,1.23,1.64,.85,3.94-.86,5.22l-9.46,7.69c-.69,.52-1.08,1.31-1.08,2.14v7.32c0,.54-.43,.97-.97,.97Z"/>
      <path class="cls-2" d="M61.81,63.67c-.41,0-.82-.13-1.17-.38-.62-.45-.92-1.2-.79-1.95l.78-4.55-3.32-3.27c-.55-.53-.74-1.32-.5-2.04,.24-.73,.85-1.25,1.61-1.36l4.57-.66,2.08-4.17c.34-.69,1.02-1.11,1.79-1.11h0c.77,0,1.45,.43,1.79,1.11,0,0,0,0,0,0l2.04,4.14,4.61,.69c.76,.11,1.37,.63,1.61,1.36,.24,.73,.04,1.51-.51,2.04l-3.3,3.22,.77,4.6c.13,.75-.18,1.5-.79,1.95s-1.42,.51-2.1,.15l-4.08-2.15-4.13,2.15c-.29,.15-.61,.23-.93,.23Zm5.04-4.32c.32,0,.64,.08,.93,.23l4.08,2.15,1.04-.22-.96,.16-.78-4.55c-.11-.65,.1-1.31,.57-1.76l3.31-3.22s-.03-.09-.03-.09l-4.57-.66c-.65-.09-1.21-.5-1.5-1.09l-2.04-4.14s-.02-.03-.05-.03l-2.09,4.17c-.29,.59-.85,1-1.5,1.09l-4.57,.66s-.03,.09-.03,.09l3.3,3.22c.47,.46,.68,1.12,.57,1.77l-.78,4.55,.08,.06,4.08-2.15c.29-.15,.61-.23,.93-.23Z"/>
      <path class="cls-2" d="M18.11,63.67c-.41,0-.82-.13-1.17-.38-.62-.45-.92-1.2-.79-1.95l.78-4.55-3.32-3.27c-.55-.53-.74-1.32-.5-2.04,.24-.73,.85-1.25,1.61-1.36l4.56-.66,2.08-4.17c.34-.69,1.02-1.11,1.79-1.11h0c.76,0,1.45,.43,1.79,1.11h0l2.04,4.14,4.61,.69c.76,.11,1.37,.63,1.61,1.36,.24,.73,.04,1.51-.51,2.04l-3.3,3.22,.76,4.6c.13,.75-.17,1.5-.79,1.95-.62,.45-1.42,.51-2.1,.15l-4.08-2.15-4.13,2.15c-.29,.15-.61,.23-.93,.23Zm5.04-4.32c.32,0,.64,.08,.93,.23l4.08,2.15,1.04-.22-.96,.16-.78-4.55c-.11-.65,.1-1.31,.57-1.77l3.3-3.22s-.03-.09-.03-.09l-4.57-.66c-.65-.09-1.21-.5-1.5-1.09l-2.04-4.14s-.02-.03-.05-.03l-2.09,4.17c-.29,.59-.85,1-1.5,1.09l-4.57,.66s-.03,.09-.03,.09l3.3,3.22c.47,.46,.68,1.12,.57,1.77l-.78,4.55,.08,.06,4.08-2.15c.29-.15,.61-.23,.93-.23Z"/>
      <path class="cls-2" d="M51.93,73.74c-.38,0-.76-.09-1.11-.28l-5.62-2.95c-.13-.07-.28-.07-.41,0l-5.61,2.95c-.81,.42-1.77,.35-2.51-.18-.74-.54-1.1-1.43-.95-2.33l1.07-6.25c.02-.14-.02-.29-.13-.39l-4.54-4.43c-.65-.64-.88-1.57-.6-2.44s1.02-1.49,1.92-1.62l6.28-.91c.14-.02,.27-.11,.33-.24l2.81-5.69c.4-.82,1.22-1.33,2.13-1.33h0c.91,0,1.73,.51,2.13,1.33l2.81,5.69c.06,.13,.19,.22,.33,.24l6.28,.91c.9,.13,1.64,.75,1.92,1.62s.05,1.8-.6,2.44l-4.54,4.43c-.1,.1-.15,.25-.13,.39l1.07,6.25c.15,.9-.21,1.79-.95,2.33-.42,.3-.91,.46-1.4,.46Zm-6.93-5.22c.38,0,.76,.09,1.11,.27l5.62,2.95c.21,.11,.38,.03,.46-.03,.08-.06,.22-.2,.17-.43l-1.07-6.25c-.13-.77,.12-1.56,.68-2.1l4.54-4.43c.17-.17,.14-.35,.11-.45-.03-.1-.12-.27-.35-.3l-6.28-.91c-.77-.11-1.44-.6-1.79-1.3l-2.81-5.69h0c-.1-.21-.29-.24-.39-.24h0c-.1,0-.29,.03-.39,.24l-2.81,5.69c-.35,.7-1.02,1.19-1.79,1.3l-6.28,.91c-.24,.03-.32,.2-.35,.3s-.06,.28,.11,.45l4.54,4.43c.56,.55,.82,1.33,.68,2.11l-1.07,6.25c-.04,.23,.09,.37,.17,.43,.08,.06,.25,.15,.46,.03l5.61-2.95c.35-.18,.73-.27,1.11-.27Z"/>
    </g>
  </g>
</svg>