<?xml version="1.0" encoding="UTF-8"?>
<svg xmlns="http://www.w3.org/2000/svg" viewBox="0 0 90 90">
  <defs>
    <style>
      .cls-1 {
        fill: #8fcc37;
      }

      .cls-2 {
        fill: #354d15;
      }
    </style>
  </defs>
  <g id="Layer_4" data-name="Layer 4">
    <circle class="cls-1" cx="45" cy="45" r="45"/>
  </g>
  <g id="bus">
    <g>
      <path class="cls-2" d="M61.79,63.59h7.52c1.02,0,2-.43,2.7-1.17,.69-.74,1.05-1.75,.99-2.76-.02-.25-.04-.49-.06-.74,0-.01,0-.02,0-.03,0-.01,0-.03-.01-.04-.36-4.27-1.3-8.49-2.81-12.56-1.41-3.8-5.08-6.36-9.15-6.36H20.79c-2.03,0-3.69,1.65-3.69,3.69v16.29c0,2.03,1.65,3.69,3.69,3.69h5.53c.18,.89,.63,1.69,1.26,2.3h-7.55c-.47,0-.85,.38-.85,.85s.38,.85,.85,.85h48.78c.47,0,.85-.38,.85-.85s-.38-.85-.85-.85h-8.28c.63-.61,1.08-1.4,1.26-2.3Zm9.18-6.96c.07,.49,.13,.99,.18,1.48-.78-.02-1.65-.13-2.59-.33-.34-.07-.65-.31-.87-.67-.25-.39-.37-.87-.36-1.37,1.49,.52,2.82,.77,3.64,.89Zm-2.45-9.75c.97,2.61,1.7,5.28,2.18,7.99-.93-.16-2.27-.46-3.69-1.06,0,0,0,0-.01,0,0,0,0,0-.01,0-1.72-.73-3.54-1.88-4.86-3.71-1.4-1.95-3.68-3.11-6.09-3.11h-3.66v-5.35h8.59c3.35,0,6.39,2.11,7.55,5.25Zm-23.52,.1v-5.35h5.68v5.35h-5.68Zm-7.37,0v-5.35h5.68v5.35h-5.68Zm-7.37,0v-5.35h5.68v5.35h-5.68Zm-7.37,0v-5.35h5.68v5.35h-5.68Zm-4.08,12.92v-16.29c0-1.1,.89-1.99,1.99-1.99h.39v6.2c0,.47,.38,.85,.85,.85H56.03c1.87,0,3.63,.9,4.72,2.41,1.36,1.89,3.17,3.14,4.94,3.98-.16,1.03,.04,2.1,.57,2.95,.47,.75,1.17,1.26,1.95,1.43,1.12,.24,2.15,.36,3.09,.37,.02,.54-.16,1.05-.53,1.45-.38,.41-.9,.63-1.46,.63h-7.52c-.4-2.01-2.17-3.53-4.3-3.53s-3.9,1.52-4.3,3.53h-5.18v-8.72c0-.83-.67-1.5-1.5-1.5h-4.72c-.83,0-1.5,.67-1.5,1.5v8.72h-5.36c-.4-2.01-2.17-3.53-4.3-3.53s-3.9,1.52-4.3,3.53h-5.53c-1.1,0-1.99-.89-1.99-1.99Zm41.37,2.84c0,1.48-1.2,2.68-2.68,2.68s-2.68-1.2-2.68-2.68,1.2-2.68,2.68-2.68,2.68,1.2,2.68,2.68Zm-13.86-.85h-4.34v-8.52h4.34v8.52Zm-13.01,.85c0,1.48-1.2,2.68-2.68,2.68s-2.68-1.2-2.68-2.68,1.2-2.68,2.68-2.68,2.68,1.2,2.68,2.68Zm.36,3.15c.63-.61,1.08-1.4,1.26-2.3h18.27c.18,.89,.63,1.69,1.26,2.3h-20.78Z"/>
      <path class="cls-2" d="M63.16,45.16c1.26,.61,2.22,1.66,2.7,2.95,.13,.34,.45,.55,.79,.55,.1,0,.2-.02,.3-.05,.44-.17,.66-.65,.5-1.09-.64-1.7-1.9-3.08-3.55-3.88-.42-.21-.93-.03-1.13,.39-.2,.42-.03,.93,.39,1.13Z"/>
      <path class="cls-2" d="M59.18,57.39c.47,0,.85-.38,.85-.85v-4.02c0-.47-.38-.85-.85-.85s-.85,.38-.85,.85v4.02c0,.47,.38,.85,.85,.85Z"/>
      <path class="cls-2" d="M64.07,69.95H24.78c-.47,0-.85,.38-.85,.85s.38,.85,.85,.85h39.29c.47,0,.85-.38,.85-.85s-.38-.85-.85-.85Z"/>
      <path class="cls-2" d="M44.96,36.25c0,.47,.38,.85,.85,.85h8.13c.47,0,.85-.38,.85-.85s-.38-.85-.85-.85h-8.13c-.47,0-.85,.38-.85,.85Z"/>
      <path class="cls-2" d="M63.81,34.09c2.42,0,4.39-1.97,4.39-4.39s-1.97-4.39-4.39-4.39-4.39,1.97-4.39,4.39,1.97,4.39,4.39,4.39Zm0-7.08c1.48,0,2.69,1.21,2.69,2.69s-1.21,2.69-2.69,2.69-2.69-1.21-2.69-2.69,1.21-2.69,2.69-2.69Z"/>
      <path class="cls-2" d="M63.81,24.2c.47,0,.85-.38,.85-.85v-.85c0-.47-.38-.85-.85-.85s-.85,.38-.85,.85v.85c0,.47,.38,.85,.85,.85Z"/>
      <path class="cls-2" d="M62.96,36.05v.85c0,.47,.38,.85,.85,.85s.85-.38,.85-.85v-.85c0-.47-.38-.85-.85-.85s-.85,.38-.85,.85Z"/>
      <path class="cls-2" d="M56.61,30.55h.85c.47,0,.85-.38,.85-.85s-.38-.85-.85-.85h-.85c-.47,0-.85,.38-.85,.85s.38,.85,.85,.85Z"/>
      <path class="cls-2" d="M69.31,29.7c0,.47,.38,.85,.85,.85h.85c.47,0,.85-.38,.85-.85s-.38-.85-.85-.85h-.85c-.47,0-.85,.38-.85,.85Z"/>
      <path class="cls-2" d="M58.72,25.81c.17,.17,.38,.25,.6,.25s.43-.08,.6-.25c.33-.33,.33-.87,0-1.2l-.6-.6c-.33-.33-.87-.33-1.2,0-.33,.33-.33,.87,0,1.2l.6,.6Z"/>
      <path class="cls-2" d="M68.9,33.59c-.33-.33-.87-.33-1.2,0s-.33,.87,0,1.2l.6,.6c.17,.17,.38,.25,.6,.25s.43-.08,.6-.25c.33-.33,.33-.87,0-1.2l-.6-.6Z"/>
      <path class="cls-2" d="M58.72,33.59l-.6,.6c-.33,.33-.33,.87,0,1.2,.17,.17,.38,.25,.6,.25s.43-.08,.6-.25l.6-.6c.33-.33,.33-.87,0-1.2s-.87-.33-1.2,0Z"/>
      <path class="cls-2" d="M68.3,26.06c.22,0,.43-.08,.6-.25l.6-.6c.33-.33,.33-.87,0-1.2-.33-.33-.87-.33-1.2,0l-.6,.6c-.33,.33-.33,.87,0,1.2,.17,.17,.38,.25,.6,.25Z"/>
      <path class="cls-2" d="M40.78,27.13h9.05c1.54,0,2.8-1.25,2.8-2.8s-1.37-2.9-2.98-2.79c-.52-1.85-2.21-3.19-4.21-3.19-1.75,0-3.31,1.04-4,2.59-.21-.05-.43-.07-.65-.07-1.73,0-3.13,1.4-3.13,3.13s1.4,3.13,3.13,3.13Zm0-4.56c.26,0,.5,.07,.74,.21,.24,.14,.53,.16,.78,.05,.25-.11,.44-.34,.49-.61,.25-1.26,1.36-2.17,2.64-2.17,1.45,0,2.62,1.14,2.68,2.59,.01,.29,.17,.55,.42,.7,.25,.15,.55,.16,.81,.03,.77-.39,1.59,.21,1.59,.97,0,.61-.49,1.1-1.1,1.1h-9.05c-.79,0-1.43-.64-1.43-1.43s.64-1.43,1.43-1.43Z"/>
      <path class="cls-2" d="M20.92,36.04h12.16c1.91,0,3.47-1.55,3.47-3.47s-1.55-3.47-3.47-3.47c-.16,0-.31,.01-.47,.03-.58-2.49-2.8-4.32-5.44-4.32-2.32,0-4.37,1.44-5.21,3.53-.34-.1-.69-.15-1.04-.15-2.16,0-3.92,1.76-3.92,3.92s1.76,3.92,3.92,3.92Zm0-6.13c.4,0,.78,.11,1.14,.33,.24,.14,.53,.16,.78,.05,.25-.11,.44-.34,.49-.61,.36-1.83,1.97-3.15,3.83-3.15,2.1,0,3.81,1.65,3.89,3.76,.01,.29,.17,.55,.42,.7,.25,.15,.56,.16,.81,.03,.26-.13,.53-.2,.79-.2,.98,0,1.77,.79,1.77,1.77s-.79,1.77-1.77,1.77h-12.16c-1.22,0-2.22-.99-2.22-2.22s.99-2.22,2.22-2.22Z"/>
      <path class="cls-2" d="M48.01,32.19c0-.47-.38-.85-.85-.85h-6.1c-.47,0-.85,.38-.85,.85s.38,.85,.85,.85h6.1c.47,0,.85-.38,.85-.85Z"/>
    </g>
  </g>
</svg>