<?xml version="1.0" encoding="utf-8"?>
<!-- Generator: Adobe Illustrator 26.0.2, SVG Export Plug-In . SVG Version: 6.00 Build 0)  -->
<svg version="1.1" id="Capa_1" xmlns="http://www.w3.org/2000/svg" xmlns:xlink="http://www.w3.org/1999/xlink" x="0px" y="0px"
	 viewBox="0 0 960 205" style="enable-background:new 0 0 960 205;" xml:space="preserve">
<style type="text/css">
	.st0{fill:none;}
	.st1{fill:#D9E0E2;}
	.st2{fill:#FFFFFF;}
	.st3{fill:#621E66;}
	.st4{fill:#A3BCC4;}
	.st5{fill:#DBC4E6;}
	.st6{fill:#CAA0CF;}
	.st7{fill:#87319A;}
	.st8{fill:#F4D673;}
	.st9{fill:#1B5630;}
	.st10{fill:#B6DC77;}
	.st11{fill:#3F5364;}
	.st12{fill:#D3EB8C;}
	.st13{fill:#F0C122;}
	.st14{fill:#4C9D2A;}
	.st15{fill:#B18A00;}
</style>
<g id="Capa_1_00000077317155477046107450000003312930493875557557_">
	<polygon class="st0" points="58.56,102.5 58.56,102.5 58.56,102.5 	"/>
	<polygon class="st0" points="175.99,102.5 175.99,102.5 175.99,102.5 	"/>
	<polygon class="st1" points="234.86,0 205.43,51.25 176.1,34.17 	"/>
	<polygon class="st2" points="175.99,0 234.86,0 234.86,0 	"/>
	<polygon class="st2" points="117.23,136.91 117.23,136.78 117.33,136.84 	"/>
	<polygon class="st3" points="117.23,136.78 117.23,136.91 117.13,205 58.56,102.5 	"/>
	<polygon class="st1" points="175.99,102.5 146.48,153.88 117.33,136.84 	"/>
	<polygon class="st4" points="117.33,136.84 146.48,153.88 117.13,205 117.23,136.91 	"/>
	<polygon class="st5" points="117.28,102.5 117.23,136.78 58.56,102.5 58.56,102.5 	"/>
	<polygon class="st6" points="117.23,136.78 117.28,102.5 175.99,102.5 175.99,102.5 117.33,136.84 	"/>
	<polygon class="st2" points="175.99,102.5 175.99,102.5 175.99,102.5 	"/>
	<polygon class="st2" points="58.56,102.5 58.56,102.5 58.56,102.5 	"/>
	<polygon class="st6" points="117.33,68.33 117.28,102.5 58.56,102.5 58.56,102.5 	"/>
	<polygon class="st7" points="117.33,68.33 175.99,102.5 175.99,102.5 117.28,102.5 117.33,68.33 	"/>
	<polygon class="st2" points="175.99,102.5 175.99,102.5 175.99,102.5 	"/>
	<polygon class="st8" points="58.56,0 58.56,34.11 0,0 	"/>
	<polygon class="st2" points="175.99,102.5 175.99,102.5 175.99,102.5 	"/>
	<polygon class="st9" points="146.71,51.25 146.71,51.25 175.99,102.5 175.99,102.5 117.33,68.33 	"/>
	<polygon class="st2" points="234.86,0 234.86,0 234.86,0 	"/>
	<polygon class="st2" points="58.56,102.5 58.56,102.5 58.56,102.5 	"/>
	<polygon class="st2" points="58.56,34.23 58.56,34.11 58.66,34.17 	"/>
	<polygon class="st10" points="175.99,34.11 175.99,0 234.86,0 234.86,0 176.1,34.17 	"/>
	<polygon class="st2" points="58.56,102.5 58.56,102.5 58.56,102.5 	"/>
	<polygon class="st2" points="117.33,68.33 117.33,68.33 117.33,68.33 	"/>
	<polygon class="st11" points="117.33,68.33 117.33,68.33 58.56,102.5 58.56,102.5 88,51.25 88,51.25 	"/>
	<polygon class="st12" points="175.99,0 175.99,34.11 117.43,0 	"/>
	<polygon class="st13" points="58.56,34.11 58.56,0 117.43,0 58.66,34.17 	"/>
	<polygon class="st2" points="205.43,51.25 205.43,51.25 205.43,51.25 	"/>
	<polygon class="st4" points="176.1,34.17 205.43,51.25 175.99,102.5 175.99,51.25 175.99,34.23 	"/>
	<polygon class="st2" points="117.43,0 117.43,0 117.43,0 	"/>
	<polygon class="st14" points="175.99,34.23 175.99,51.25 175.99,102.5 146.71,51.25 146.71,51.25 	"/>
	<polygon class="st2" points="117.43,0 117.43,0 117.43,0 	"/>
	<polygon class="st2" points="117.43,0 117.43,0 117.43,0 	"/>
	<polygon class="st2" points="117.43,0 117.43,0 117.43,0 	"/>
	<polygon class="st2" points="146.71,51.25 146.71,51.25 146.71,51.25 	"/>
	<polygon class="st2" points="176.1,34.17 175.99,34.23 175.99,34.11 	"/>
	<polygon class="st4" points="58.66,34.17 88,51.25 88,51.25 58.56,102.5 58.56,51.25 58.56,34.23 	"/>
	<polygon class="st2" points="88,51.25 88,51.25 88,51.25 	"/>
	<polygon class="st10" points="117.43,0 117.43,0 175.99,34.11 175.99,34.23 146.71,51.25 	"/>
	<polygon class="st1" points="58.66,34.17 117.43,0 117.43,0 88,51.25 	"/>
	<polygon class="st14" points="117.36,51.25 117.43,0 117.43,0 146.71,51.25 146.71,51.25 117.33,68.33 	"/>
	<polygon class="st4" points="117.43,0 117.36,51.25 117.33,68.33 88,51.25 88,51.25 	"/>
	<polygon class="st15" points="0,0 29.28,51.25 58.56,102.5 58.56,51.25 58.56,34.23 58.56,34.11 	"/>
</g>
<g id="Capa_4">
	<path class="st2" d="M267.59,140.97v-74.8h28.28c9.78,0,16.69,1.6,20.73,4.81c4.04,3.21,6.04,7.69,6,13.46
		c0.11,3.99-1.04,7.91-3.27,11.22c-2.24,3.18-5.51,5.49-9.26,6.52c4.31,0.3,8.32,2.27,11.19,5.5c2.75,3.17,4.13,7.32,4.12,12.45
		c0,13.89-9.92,20.83-29.77,20.84L267.59,140.97z M296.3,71.5h-23v28.53h24.64c5.71,0,10.31-1.3,13.81-3.9
		c3.44-2.47,5.41-6.5,5.25-10.73c0-4.77-1.59-8.27-4.76-10.52S303.75,71.51,296.3,71.5z M297.58,105.37h-24.31v30.25h23.24
		c7.86,0,13.7-1.28,17.52-3.85c3.82-2.57,5.73-6.55,5.73-12c0-9.59-7.39-14.39-22.18-14.39V105.37z"/>
	<path class="st2" d="M385,127.18l3.75,3.1c-2.23,3.73-5.46,6.77-9.32,8.76c-3.91,2.01-8.25,3.04-12.64,3
		c-8.86,0-15.98-2.64-21.37-7.91s-8.08-12.27-8.09-21c0-8.48,2.46-15.44,7.39-20.89c4.93-5.45,11.82-8.17,20.68-8.17
		c7.33,0,13.38,2.3,18.15,6.89c4.77,4.59,7.14,10.67,7.13,18.22c0.02,1.79-0.09,3.57-0.33,5.34H343c0,6.98,2.23,12.48,6.7,16.51
		c4.47,4.03,10.27,6.03,17.4,6c3.64,0,7.21-0.97,10.34-2.83C380.49,132.5,383.08,130.09,385,127.18z M364.76,89.04
		c-6.36,0-11.49,1.9-15.38,5.71c-3.94,3.92-6.32,9.15-6.69,14.7H385c-0.07-6.34-1.91-11.34-5.52-15c-3.61-3.66-8.5-5.46-14.69-5.41
		H364.76z"/>
	<path class="st2" d="M402.51,140.97v-78h5.25v78H402.51z"/>
	<path class="st2" d="M427.68,95.77l-3-4.17c2.88-2.38,6.16-4.23,9.69-5.45c3.58-1.36,7.36-2.08,11.19-2.13
		c7.57,0,13.28,1.92,17.14,5.76c3.86,3.84,5.79,9.33,5.79,16.46v34.73h-5.25v-10.05c-4.67,7.2-12.06,10.8-22.18,10.8
		c-6,0-10.84-1.48-14.51-4.44c-3.63-2.82-5.69-7.19-5.55-11.78c0-11.04,9.14-16.56,27.43-16.56c4.98-0.11,9.95,0.47,14.78,1.71
		c0-7.05-1.3-12.41-3.91-16.08s-7.41-5.51-14.41-5.5C438.92,89.05,433.18,91.28,427.68,95.77z M442.68,136.69
		c4.78,0.14,9.46-1.39,13.23-4.32c3.22-2.39,5.75-5.58,7.34-9.25v-7.48c-4.53-1.25-9.23-1.83-13.93-1.71
		c-7.49,0-13.13,0.84-16.92,2.52c-3.79,1.68-5.68,4.51-5.68,8.49c-0.11,3.43,1.55,6.68,4.39,8.6
		C434.04,135.64,437.89,136.69,442.68,136.69z"/>
	<path class="st2" d="M502.88,140.97v-74.8h5.79l30.88,41.33l29.71-41.33h5.29v74.8h-5.68V75.15l-29.28,40.35h-1l-30-40.14v65.65
		L502.88,140.97z"/>
	<path class="st2" d="M634.57,127.18l3.75,3.1c-2.23,3.73-5.46,6.77-9.32,8.76c-3.91,2.01-8.25,3.04-12.64,3
		c-8.85,0-15.97-2.64-21.37-7.91s-8.09-12.27-8.08-21c0-8.48,2.46-15.44,7.39-20.89c4.93-5.45,11.83-8.19,20.7-8.22
		c7.33,0,13.39,2.3,18.16,6.89s7.15,10.67,7.12,18.22c0.02,1.79-0.09,3.57-0.32,5.34h-47.38c0,6.98,2.23,12.48,6.7,16.51
		c4.47,4.03,10.27,6.03,17.41,6c3.63,0.01,7.19-0.96,10.31-2.8C630.05,132.49,632.65,130.09,634.57,127.18z M614.33,89.04
		c-6.36,0-11.48,1.9-15.37,5.71c-3.95,3.92-6.33,9.15-6.7,14.7h42.31c-0.07-6.34-1.91-11.34-5.51-15
		C625.46,90.79,620.55,88.99,614.33,89.04z"/>
	<path class="st2" d="M651.74,140.97V85.4H657v9.19c2.1-3.45,5.2-6.17,8.89-7.8c3.9-1.79,8.14-2.7,12.43-2.67c15.33,0,23,8.33,23,25
		v31.84h-5.25v-30.77c0-14-6.5-21.02-19.5-21.05c-4.1,0.05-8.08,1.36-11.41,3.74c-3.56,2.38-6.39,5.72-8.16,9.62v38.47H651.74z"/>
	<path class="st2" d="M760.74,140.97v-9.41c-1.78,2.85-4.2,5.25-7.07,7c-3.6,2.32-7.82,3.49-12.1,3.37c-8.43,0-15.24-2.6-20.41-7.8
		s-7.76-12.15-7.77-20.84c0-8.55,2.77-15.55,8.31-21c5.42-5.44,12.84-8.41,20.51-8.22c8.07,0,14.24,2.35,18.53,7.05V62.96H766v78
		L760.74,140.97z M741.67,136.91c4.41,0.15,8.73-1.33,12.11-4.17c2.95-2.42,5.34-5.44,7-8.87v-25c-4.21-6.56-10.5-9.84-18.85-9.83
		c-6.05-0.06-11.87,2.37-16.07,6.73c-4.5,4.49-6.75,10.26-6.75,17.31c0,7.26,2.09,13.05,6.27,17.36
		C729.56,134.75,734.99,136.91,741.67,136.91z"/>
	<path class="st2" d="M786.07,133.91c-5.38-5.41-8.07-12.35-8.07-20.83s2.7-15.44,8.09-20.89c5.39-5.45,12.39-8.18,21-8.17
		c8.61,0.01,15.65,2.73,21.1,8.17c5.43,5.45,8.14,12.41,8.14,20.89c0,8.48-2.71,15.41-8.14,20.78c-5.43,5.45-12.47,8.17-21.1,8.18
		S791.45,139.34,786.07,133.91z M783.66,113.08c0,6.98,2.2,12.71,6.59,17.2c4.39,4.49,10.02,6.73,16.87,6.73
		c6.92,0,12.59-2.22,17-6.67s6.61-10.2,6.58-17.26c0-7.05-2.21-12.82-6.64-17.31c-4.43-4.49-10.07-6.73-16.92-6.73
		c-6.86,0-12.48,2.24-16.87,6.73C785.88,100.26,783.68,106.03,783.66,113.08L783.66,113.08z"/>
	<path class="st2" d="M851.41,90.43v-5h45.8v3.38l-39.67,47.17h39v5h-46.96v-3.54l39.54-47L851.41,90.43z"/>
	<path class="st2" d="M919.19,95.77l-3-4.17c2.88-2.38,6.16-4.23,9.69-5.45c3.58-1.36,7.37-2.08,11.2-2.13
		c7.57,0,13.28,1.92,17.13,5.76s5.78,9.33,5.79,16.46v34.73h-5.25v-10.05c-4.67,7.2-12.06,10.8-22.17,10.8
		c-6,0-10.84-1.48-14.52-4.44c-3.62-2.83-5.67-7.22-5.51-11.81c0-11.04,9.14-16.56,27.42-16.56c4.98-0.11,9.95,0.47,14.78,1.71
		c0-7.05-1.3-12.41-3.91-16.08s-7.41-5.51-14.41-5.5C930.44,89.04,924.7,91.28,919.19,95.77z M934.19,136.69
		c4.78,0.15,9.46-1.38,13.23-4.32c3.22-2.39,5.75-5.58,7.34-9.25v-7.48c-4.53-1.25-9.23-1.83-13.93-1.71
		c-7.49,0-13.13,0.84-16.92,2.52c-3.79,1.68-5.68,4.51-5.67,8.49c-0.11,3.43,1.55,6.68,4.39,8.6
		C925.54,135.64,929.39,136.69,934.19,136.69L934.19,136.69z"/>
</g>
</svg>
