<?xml version="1.0" encoding="utf-8"?>
<!-- Generator: Adobe Illustrator 26.0.2, SVG Export Plug-In . SVG Version: 6.00 Build 0)  -->
<svg version="1.1" id="Capa_3" xmlns="http://www.w3.org/2000/svg" xmlns:xlink="http://www.w3.org/1999/xlink" x="0px" y="0px"
	 viewBox="0 0 80 80" style="enable-background:new 0 0 80 80;" xml:space="preserve">
<style type="text/css">
	.st0{fill:#FFFFFF;}
</style>
<path class="st0" d="M54.4,41.31c-3.39,0-6.14-2.75-6.14-6.14s2.75-6.14,6.14-6.14c3.39,0,6.14,2.75,6.14,6.14l0,0
	C60.53,38.56,57.79,41.3,54.4,41.31z M54.4,30.79c-2.42,0-4.38,1.96-4.38,4.38c0,2.42,1.96,4.38,4.38,4.38s4.38-1.96,4.38-4.38
	S56.82,30.79,54.4,30.79C54.4,30.79,54.4,30.79,54.4,30.79z"/>
<path class="st0" d="M39.59,40.61c-3.39,0-6.14-2.75-6.14-6.14s2.75-6.14,6.14-6.14c3.39,0,6.14,2.75,6.14,6.14l0,0
	C45.73,37.86,42.98,40.61,39.59,40.61z M39.59,30.09c-2.42,0.02-4.37,1.99-4.35,4.41c0.02,2.42,1.99,4.37,4.41,4.35
	c2.41-0.02,4.35-1.97,4.35-4.38c-0.01-2.42-1.98-4.39-4.4-4.38C39.6,30.09,39.59,30.09,39.59,30.09z"/>
<path class="st0" d="M58.18,58.78c-0.27,0-0.54-0.02-0.8-0.06l-8.05-1.2c-2-0.31-3.4-2.16-3.16-4.17c0.25-2.05,2.12-3.51,4.17-3.25
	c0.05,0.01,0.11,0.01,0.16,0.02l7.12,1.18c0.49-0.02,0.9,0.36,0.92,0.84c0.02,0.49-0.36,0.9-0.84,0.92
	c-0.12,0.01-0.24-0.01-0.35-0.06l-7.13-1.18c-1.07-0.28-2.16,0.35-2.45,1.42c-0.28,1.07,0.35,2.16,1.42,2.45
	c0.13,0.04,0.27,0.06,0.41,0.06l8,1.21c1.08,0.17,2.17-0.15,3-0.86c0.82-0.7,1.28-1.72,1.28-2.8v-8.55c0-1.19-0.62-2.28-1.64-2.89
	l-3-1.8c-0.42-0.25-0.55-0.79-0.3-1.21c0,0,0,0,0,0c0.25-0.41,0.78-0.55,1.19-0.3c0,0,0.01,0,0.01,0l3,1.8
	c1.55,0.93,2.49,2.6,2.5,4.4v8.58c0.01,3-2.43,5.44-5.43,5.45C58.19,58.78,58.19,58.78,58.18,58.78z"/>
<path class="st0" d="M44,38.26c-0.49-0.01-0.87-0.41-0.86-0.9c0.01-0.41,0.29-0.76,0.69-0.84l5.17-1c0.48-0.09,0.94,0.22,1.03,0.69
	s-0.22,0.94-0.69,1.03l0,0l-5.17,1L44,38.26z"/>
<path class="st0" d="M66.12,46.37c-0.53,0-1.04-0.12-1.51-0.37l-2.26-1.17c-0.42-0.23-0.57-0.76-0.35-1.18
	c0.23-0.43,0.76-0.6,1.19-0.38l2.26,1.17c0.37,0.2,0.81,0.23,1.21,0.09c0.41-0.14,0.73-0.45,0.9-0.84c0.33-0.75,0.02-1.62-0.7-2
	l-7.58-3.93c-0.43-0.23-0.59-0.76-0.37-1.19c0.22-0.43,0.75-0.59,1.17-0.37c0,0,0.01,0,0.01,0l7.58,3.93
	c1.61,0.85,2.22,2.84,1.37,4.45c-0.38,0.72-1.02,1.27-1.79,1.55C66.89,46.28,66.51,46.36,66.12,46.37z"/>
<path class="st0" d="M47,53c-0.19,0-0.37-0.06-0.52-0.17L14.75,29.57c-0.39-0.29-0.47-0.84-0.18-1.23c0.28-0.39,0.83-0.48,1.22-0.19
	c0,0,0,0,0,0l31.77,23.3c0.38,0.3,0.44,0.85,0.14,1.22C47.53,52.88,47.27,53.01,47,53z"/>
<path class="st0" d="M16.64,33.46c-0.09,0.02-0.19,0.02-0.28,0l-5-1.69c-0.46-0.15-0.71-0.65-0.56-1.11l3.15-9.38
	c0.07-0.22,0.23-0.41,0.44-0.51c0.21-0.09,0.46-0.09,0.67,0l5,1.68c0.46,0.16,0.7,0.65,0.55,1.11l-3.14,9.38
	c-0.12,0.36-0.45,0.6-0.83,0.6L16.64,33.46z M12.72,30.34l3.36,1.13l2.58-7.71l-3.36-1.13L12.72,30.34z"/>
<path class="st0" d="M22.77,20.53c-0.27,0-0.53-0.12-0.7-0.34c-0.27-0.38-0.2-0.9,0.16-1.19L26,16.07c0.39-0.29,0.93-0.22,1.23,0.16
	c0.28,0.39,0.19,0.93-0.21,1.21c-0.01,0.01-0.02,0.01-0.02,0.02l-3.7,2.89C23.15,20.47,22.96,20.53,22.77,20.53z"/>
<path class="st0" d="M26.49,31.83c-0.19,0-0.38-0.06-0.54-0.18l-3.72-2.89c-0.38-0.29-0.46-0.84-0.17-1.22c0,0,0.01-0.01,0.01-0.01
	c0.3-0.38,0.84-0.45,1.23-0.16l3.7,2.89c0.38,0.3,0.45,0.86,0.14,1.24c-0.17,0.21-0.42,0.33-0.68,0.33H26.49z"/>
<path class="st0" d="M29,24.83h-4.37c-0.49,0-0.88-0.39-0.88-0.88c0-0.49,0.39-0.88,0.88-0.88H29c0.49,0,0.88,0.39,0.88,0.88
	C29.88,24.44,29.49,24.83,29,24.83L29,24.83z"/>
<path class="st0" d="M32.42,57.23c-0.2,0-0.39-0.07-0.55-0.19l-5-4l0,0c-1.49-1.25-1.69-3.47-0.44-4.96
	c0.03-0.04,0.07-0.08,0.11-0.12l3.72-4c0.33-0.36,0.89-0.38,1.25-0.04c0.36,0.33,0.38,0.89,0.05,1.24l-3.72,4
	c-0.64,0.72-0.58,1.82,0.13,2.46c0.01,0.01,0.02,0.02,0.04,0.03l5,4c0.38,0.31,0.44,0.86,0.14,1.24
	C32.97,57.11,32.7,57.23,32.42,57.23z"/>
<path class="st0" d="M31.9,64h-0.08c-0.48-0.02-0.85-0.43-0.83-0.91c0-0.03,0-0.06,0.01-0.09l1.69-17c0.03-0.49,0.44-0.86,0.92-0.83
	c0.49,0.03,0.86,0.44,0.83,0.92c0,0.03,0,0.05-0.01,0.08l-1.69,17C32.72,63.62,32.35,63.98,31.9,64z"/>
<path class="st0" d="M60.49,64c-0.47,0-0.86-0.38-0.88-0.85l-0.19-5.72c-0.02-0.48,0.36-0.88,0.84-0.9c0,0,0.01,0,0.01,0
	c0.48-0.02,0.89,0.36,0.91,0.84l0.19,5.72c0.02,0.49-0.36,0.89-0.85,0.91c0,0,0,0,0,0H60.49z"/>
<path class="st0" d="M45.32,64L45.32,64c-0.48-0.03-0.85-0.45-0.83-0.93l0.31-5.71c0.02-0.49,0.44-0.86,0.92-0.83
	s0.86,0.44,0.83,0.92l-0.31,5.72C46.22,63.66,45.81,64.03,45.32,64C45.32,64,45.32,64,45.32,64z"/>
<path class="st0" d="M45.39,47.93h-0.07c-0.48-0.04-0.85-0.46-0.81-0.95c0-0.02,0-0.03,0.01-0.05l0.29-3.72
	c0.18-1.99,1.39-3.75,3.19-4.62l1.58-0.75c0.42-0.25,0.96-0.11,1.21,0.31c0.25,0.42,0.11,0.96-0.31,1.21
	c-0.04,0.03-0.09,0.05-0.14,0.07l-1.59,0.76c-1.26,0.61-2.1,1.83-2.21,3.22l-0.29,3.72C46.21,47.57,45.84,47.92,45.39,47.93z"/>
</svg>
